<svg width="567" height="133" viewBox="0 0 567 133" fill="none" xmlns="http://www.w3.org/2000/svg">
<path d="M379.555 0.237477C377.311 0.558762 371.94 2.24551 368.333 3.69129C360.558 6.98446 358.233 8.18928 354.546 11.0005C352.221 12.6873 349.736 15.2576 349.095 16.5427C347.652 19.3539 348.053 24.8961 349.977 28.9925C351.58 32.366 357.672 38.631 363.604 42.8881C368.654 46.5829 372.181 49.4744 376.91 53.9724C380.197 57.1853 383.724 63.6913 382.682 64.6551C380.918 66.1812 351.9 76.623 343.323 78.872C342.762 79.0327 342.281 79.6752 342.281 80.3981C342.281 81.2817 343.163 81.6029 345.888 81.6029C351.9 81.6029 369.215 78.5507 376.189 76.2214C384.044 73.5708 387.251 71.0005 387.491 67.1451C387.571 65.0568 388.132 64.0929 389.575 63.37C390.617 62.8078 391.579 62.4865 391.66 62.5668C391.74 62.7274 392.621 75.1772 392.782 77.8278C392.782 78.2294 393.583 78.3901 394.545 78.2294C396.549 77.9885 398.152 74.2937 398.714 68.8319C398.874 67.2254 399.435 64.8961 399.916 63.6913C400.397 62.4061 400.798 61.121 400.798 60.7194C400.798 59.5949 404.886 55.0969 405.607 55.4985C405.928 55.6592 406.409 57.9082 406.73 60.3178C407.531 67.1451 409.054 70.358 411.619 70.358C413.543 70.358 413.623 70.1973 412.661 68.5106C411.459 66.3419 411.299 65.5387 410.417 59.9162C409.455 53.2495 408.413 51.0808 406.088 51.0808C404.004 51.0808 398.393 56.9443 398.393 59.1933C398.313 59.8359 397.832 61.362 397.191 62.7274L396.148 65.1371L396.068 62.1652C395.988 60.1572 396.549 58.7114 397.591 57.6672C399.996 55.4182 401.439 48.4302 401.118 41.0407C400.878 37.5066 400.718 34.0527 400.718 33.4102C400.718 32.4463 398.152 20.3981 397.191 16.9443C397.11 16.4624 396.95 15.7395 396.79 15.3379C396.469 13.6511 395.106 11.7234 394.385 11.7234C393.904 11.7234 392.862 12.8479 391.98 14.2937C390.617 16.5427 390.537 17.9885 390.858 26.9041C391.018 32.4463 391.499 39.8359 391.9 43.4503C392.702 51.2415 392.301 59.1933 390.938 60.3981C390.457 60.9604 389.175 61.6029 388.213 61.8439C386.77 62.3258 386.369 61.9242 385.648 59.7555C384.365 55.9804 376.189 47.627 367.131 40.9604C364.726 39.113 362.241 37.1049 361.6 36.3821C361.039 35.5788 360.077 35.0166 359.596 35.0166C357.351 35.0166 351.099 24.4142 351.099 20.5588C351.099 16.3017 364.886 7.70736 376.189 4.97643C384.525 2.88808 392.702 4.17322 391.419 7.38607C390.938 8.67121 393.183 8.9925 393.984 7.70736C394.866 6.26157 393.503 2.08487 391.82 1.20133C389.976 0.157156 383.243 -0.324772 379.555 0.237477ZM397.591 30.1973C399.515 39.1933 399.435 50.8399 397.591 54.2937C396.309 56.7033 395.828 55.9001 395.587 50.5186C395.507 47.9483 395.106 40.0768 394.786 33.0086C394.064 18.0688 394.946 17.1853 397.591 30.1973ZM383.964 67.1451C383.964 68.8319 380.197 71.2415 374.425 73.1692C367.692 75.4182 367.131 75.4985 367.131 74.4543C367.131 73.5708 372.421 70.358 373.784 70.358C374.345 70.358 376.349 69.4744 378.353 68.3499C382.201 66.2616 383.964 65.86 383.964 67.1451Z" fill="#490B3D"/>
<path d="M524.404 35.0969C522.961 35.5789 520.315 37.3459 518.632 39.0327C514.704 42.9684 514.304 46.5025 517.51 49.5548C519.354 51.3218 520.155 51.4825 526.087 51.3218C530.736 51.2415 534.584 50.5186 539.073 49.0728L545.566 46.9042L549.093 49.3138C553.662 52.366 557.83 53.4905 562.56 52.9283C564.644 52.6873 566.407 52.366 566.568 52.2857C566.728 52.125 563.762 51.0809 560.075 49.9564C552.299 47.5467 548.532 45.1371 549.894 43.4503C550.536 42.6471 550.536 41.9242 549.894 40.7194C548.772 38.5507 548.451 38.6311 545.806 41.121C540.756 46.0206 522.319 49.3941 519.754 45.9403C518.392 44.0929 518.792 43.4503 522.72 41.0407C526.087 38.872 528.251 38.5507 529.614 39.9162C530.656 40.9604 532.259 40.2375 532.259 38.5507C532.259 37.105 529.374 34.2134 528.091 34.2937C527.53 34.2937 525.847 34.6953 524.404 35.0969Z" fill="#490B3D"/>
<path d="M64.6086 37.2656C64.3681 37.6672 63.6467 42.4062 62.9252 47.9483C62.2839 53.4102 61.4823 58.3901 61.322 58.9523C61.0816 59.5146 60.5204 65.1371 60.1196 71.4021C59.6387 77.6672 59.0776 83.4503 58.8371 84.1732C58.4363 85.619 48.8973 89.5548 40.721 91.7234L35.8313 92.9283L31.7432 90.6793C27.9757 88.5909 27.0138 88.4303 19.1581 88.4303C10.4207 88.4303 9.53898 88.6712 3.04606 92.607C0.641276 94.1331 0 94.9363 0 96.864C0 103.29 6.57308 104.093 23.4867 99.6752C29.4185 98.1491 34.7892 96.864 35.5107 96.864C36.1519 96.864 39.2782 99.354 42.4044 102.406C48.9775 108.832 53.3061 116.864 54.9894 126.021C56.1918 132.045 56.9133 133.491 58.7569 132.768C59.6387 132.446 59.7188 131.402 59.0776 127.065C58.4363 123.129 58.5966 118.872 59.6387 109.555C60.3601 102.808 61.1617 95.3379 61.4823 93.0086C61.8831 88.9122 62.0435 88.6712 65.811 86.7435C72.5444 83.37 86.412 77.9885 98.5962 73.9724C105.009 71.8841 111.823 69.5548 113.827 68.7515C122.083 65.5387 124.568 66.1813 118.476 70.117C115.83 71.8038 115.35 72.366 116.472 72.607C118.155 72.9283 137.313 63.4503 139.237 61.362C141.081 59.2736 139.718 58.0688 136.672 59.113C135.309 59.5146 129.618 61.121 123.846 62.7274C118.155 64.3339 112.704 65.9403 111.823 66.3419C110.941 66.6632 102.444 69.7154 92.985 73.0086C83.5262 76.3017 72.9452 79.9965 69.5785 81.2817C66.1316 82.4865 63.2459 83.37 63.0054 83.1291C62.5244 82.6471 64.6887 60.8801 65.6506 57.105C68.6165 45.2174 68.9372 38.7114 66.6126 37.4262C65.7308 37.0246 64.849 36.9443 64.6086 37.2656ZM57.3141 96.2214C56.0315 110.519 55.7109 113.25 54.9093 113.491C54.4283 113.651 53.3862 112.366 52.5045 110.76C51.6227 109.073 48.4163 105.137 45.4504 101.924L39.9194 96.1411L42.8853 94.856C44.5687 94.2134 46.1719 93.6511 46.4925 93.6511C46.8132 93.6511 49.0576 92.7676 51.3822 91.7234C58.1156 88.6712 58.0355 88.5909 57.3141 96.2214ZM26.4526 91.8038C29.0979 92.5266 31.1821 93.4905 31.0217 93.9724C30.7011 95.0166 17.1541 98.3098 10.3406 98.9524C5.45085 99.4343 4.88973 99.354 4.08814 97.8279C2.48494 94.7756 8.01595 92.125 18.4367 91.0005C19.9597 90.8399 21.3224 90.5989 21.4828 90.5989C21.5629 90.5186 23.8074 91.0809 26.4526 91.8038Z" fill="#490B3D"/>
<path d="M475.907 43.5307C474.945 44.6552 473.021 47.4664 471.659 49.7154C468.853 54.4543 467.009 55.4182 466.208 52.366C465.647 50.1973 465.566 50.1973 457.31 49.876C454.344 49.7957 452.1 50.7596 452.1 52.2054C452.1 52.8479 450.977 54.2937 449.615 55.4182C447.691 57.105 446.328 57.5066 442.881 57.5066C438.713 57.5066 438.553 57.4262 437.671 54.7756C437.19 53.3298 436.068 51.4021 435.186 50.5989C433.663 49.2335 433.423 49.2335 432.621 50.358C431.98 51.1612 431.018 51.4021 429.655 51.0809C425.727 50.117 423.242 51.1612 421.158 54.374C417.23 60.7194 419.555 65.86 426.769 66.7435C430.216 67.2254 431.659 66.9845 434.384 65.619C436.148 64.6552 437.671 63.611 437.671 63.2094C437.671 62.8881 439.835 62.3258 442.481 62.0849C447.691 61.6029 453.863 58.6311 455.306 55.9001C455.947 54.6953 456.989 54.2937 459.234 54.2937C461.879 54.2937 462.44 54.615 462.841 56.3017C463.482 58.872 466.528 60.1572 469.494 59.0327C471.659 58.3098 475.346 52.8479 475.346 50.4383C475.346 49.9564 475.667 49.4744 476.067 49.4744C476.468 49.4744 477.109 48.7515 477.35 47.868C478.232 45.0568 479.835 46.1009 480.636 50.0367C481.278 53.5708 481.518 53.8921 483.522 53.7315C484.725 53.6511 487.69 52.125 490.095 50.358C492.5 48.5106 494.825 47.0648 495.225 47.0648C495.706 47.0648 497.791 48.5106 499.875 50.2776C502.841 52.7676 504.444 53.4905 506.768 53.4905C510.536 53.4905 511.338 52.2054 508.452 50.9202C505.807 49.7154 504.284 48.5106 499.875 44.4142C498.111 42.8078 496.187 41.4423 495.546 41.4423C494.985 41.4423 492.741 42.8881 490.656 44.6552C486.568 48.109 484.163 48.7515 484.163 46.4222C484.163 44.0929 481.839 41.4423 479.675 41.4423C478.632 41.4423 476.949 42.3258 475.907 43.5307ZM429.895 55.1772C431.018 55.6592 432.3 56.9443 432.781 57.9885C433.262 59.0327 433.984 59.9162 434.465 59.9162C435.988 59.9162 435.266 61.2817 433.262 62.1652C430.697 63.37 426.048 63.37 423.964 62.3258C421.88 61.2013 422.04 58.9523 424.445 56.3821C426.609 54.0527 427.17 53.8921 429.895 55.1772Z" fill="#490B3D"/>
<path d="M149.097 51.3218C149.097 70.9202 148.295 89.876 147.494 90.8399C145.65 93.0889 135.79 99.2736 134.107 99.2736C133.706 99.2736 131.862 97.8278 129.858 96.0608C127.935 94.374 125.37 92.6873 124.167 92.4463C122.885 92.125 120.64 91.0809 119.037 89.9564C115.67 87.7074 113.987 87.5467 113.265 89.3941C112.945 90.2776 113.506 91.2415 114.869 92.366C116.071 93.3298 117.033 94.6953 117.033 95.4985C117.033 97.4262 111.903 102.888 108.696 104.414C102.444 107.386 99.5582 105.137 101.081 98.4704C101.963 94.5347 101.562 92.8479 99.8788 92.8479C98.6764 92.8479 98.1955 94.2134 97.3137 100.478C96.6724 105.057 94.2676 110.92 91.943 113.49C90.0192 115.659 87.5342 115.9 86.8128 114.053C86.3318 112.687 87.5342 100.478 88.4962 96.864C88.8168 95.7395 89.2978 93.4905 89.5382 91.8037C89.939 89.1531 89.7787 88.8319 88.2557 88.8319C87.1334 88.8319 86.5723 89.3138 86.5723 90.358C86.5723 91.2415 85.7707 95.0969 84.7287 99.0327C83.7667 102.888 83.0453 107.547 83.1255 109.314C83.2858 111.081 83.4461 113.25 83.4461 114.133C83.4461 116.543 85.6104 119.354 87.4541 119.354C90.42 119.354 93.6264 116.784 95.8708 112.607C97.0732 110.358 98.1153 108.43 98.1955 108.27C98.2756 108.189 99.478 108.671 100.841 109.314C102.845 110.358 103.967 110.438 106.532 109.715C110.861 108.591 118.396 102.246 119.037 99.1933C119.678 96.1411 120.961 95.6592 124.568 96.864C128.576 98.1491 128.816 99.0327 125.931 102.005C120.64 107.466 124.247 109.073 132.103 104.816C139.237 100.96 142.123 99.2736 144.528 97.1853C145.81 96.1411 147.093 95.4182 147.413 95.6592C147.814 95.8198 148.295 98.3098 148.455 101.201C149.017 107.386 149.337 108.029 151.822 107.547C153.425 107.225 154.067 106.262 155.109 102.968C155.83 100.719 156.712 98.2294 157.193 97.5066C157.594 96.7033 157.914 95.6592 157.914 95.0969C157.914 93.2495 161.281 87.2254 162.323 87.2254C162.964 87.2254 163.365 88.2696 163.365 90.0367C163.365 95.7395 168.576 102.246 171.301 99.9162C172.664 98.7917 172.664 97.6672 171.301 97.6672C168.656 97.6672 166.732 94.0527 166.331 88.3499C165.77 80.88 165.369 79.8359 163.285 80.1572C161.361 80.3981 157.594 87.3861 154.948 95.4182C153.265 100.8 151.983 101.041 151.662 96.1411C151.502 93.6511 151.983 91.6431 153.586 88.5909C156.151 83.611 156.552 79.1933 155.109 68.7515C153.906 59.2736 151.902 52.2054 150.299 51.5628C149.658 51.3218 149.097 51.2415 149.097 51.3218ZM153.906 79.5949C153.906 80.2375 153.586 80.7997 153.105 80.7997C152.704 80.7997 152.303 80.2375 152.303 79.5949C152.303 78.9523 152.704 78.3901 153.105 78.3901C153.586 78.3901 153.906 78.9523 153.906 79.5949Z" fill="#490B3D"/>
<path d="M243.044 65.6993C241.681 67.0648 241.841 68.0286 244.086 71.3218L246.09 74.2134L243.284 79.7556C240.318 85.6993 228.375 100.077 226.371 100.077C225.328 100.077 225.248 99.354 225.729 95.4182C226.05 92.9282 226.771 90.117 227.332 89.2335C227.974 88.3499 228.455 87.2254 228.455 86.7435C228.455 85.1371 225.89 84.7355 224.367 86.1009C223.565 86.8238 221.801 87.4664 220.359 87.4664L217.713 87.627L217.633 83.129C217.473 76.0608 214.347 72.607 210.739 75.4182C207.934 77.5869 206.651 83.0487 207.934 87.0648C208.735 89.3941 212.343 91.2415 216.19 91.2415C220.679 91.2415 221.641 92.2054 221.401 96.2214C221.32 98.1491 221.561 100.8 221.962 102.165C222.603 104.495 222.282 104.976 216.27 111.001C205.529 121.603 203.766 124.976 206.17 130.197C207.934 134.133 216.351 132.366 221.561 126.824C224.447 123.691 225.248 120.719 225.569 111.723C225.729 107.145 226.691 105.057 230.779 100.398C234.386 96.2214 239.677 90.117 242.883 86.3419C244.166 84.7355 245.288 82.8881 245.288 82.3258C245.288 81.6833 246.01 80.3178 246.811 79.2736L248.334 77.2656L250.018 80.0768C250.899 81.6029 251.701 83.2897 251.701 83.8519C251.701 85.7797 254.987 89.6351 256.511 89.6351C259.076 89.6351 259.316 87.868 257.072 86.2616C255.869 85.378 254.907 83.9323 254.907 83.0487C254.907 82.0849 253.625 78.6311 252.022 75.2576C250.418 71.8841 248.735 68.2696 248.174 67.1451C247.132 64.8961 244.567 64.1732 243.044 65.6993ZM215.148 80.4784C216.03 82.8078 215.629 86.5025 214.427 86.9041C212.824 87.5467 210.82 85.86 210.82 83.8519C210.82 80.1572 214.026 77.5869 215.148 80.4784ZM222.683 112.687C223.004 121.121 216.912 128.993 210.018 128.993C207.854 128.993 207.132 125.619 208.735 123.209C210.9 119.997 220.759 109.715 221.721 109.715C222.202 109.715 222.603 111.081 222.683 112.687Z" fill="#490B3D"/>
<path d="M270.538 70.0367C264.847 72.9282 262.042 79.1933 264.927 82.4061C267.412 85.1371 272.943 84.5748 281.28 80.7997L288.494 77.5065L292.182 80.3981C294.266 81.9242 296.751 83.2897 297.873 83.37C298.915 83.4503 300.358 83.5306 300.999 83.5306C303.564 83.6913 302.442 82.0045 298.674 80.0768C293.705 77.4262 292.663 75.9804 294.105 73.2495C296.27 69.3138 293.143 66.9845 290.659 70.6792C289.296 72.8479 280.077 78.0688 276.23 78.7917C274.867 79.113 273.104 79.5146 272.382 79.6752C270.138 80.3178 270.699 78.1491 273.344 75.5788C275.989 73.0889 276.47 70.0367 274.466 69.2335C272.943 68.6712 273.344 68.5106 270.538 70.0367Z" fill="#490B3D"/>
<path d="M178.916 79.0327C173.064 82.1652 170.66 89.6351 174.026 93.9724C175.63 96.0608 176.111 96.1411 180.279 95.7395C182.764 95.5789 186.05 95.0969 187.653 94.856C189.738 94.4544 190.78 94.615 191.501 95.5789C192.623 96.9443 196.471 97.1853 199.196 96.1411C200.719 95.4985 200.719 95.4182 198.796 94.615C197.673 94.2134 195.75 93.4905 194.387 93.1692C192.383 92.5266 191.902 91.8841 191.581 89.3138C191.181 86.0206 189.497 84.5748 188.696 86.7435C187.894 88.8319 186.772 88.1893 186.772 85.6993C186.772 82.9684 185.249 78.3901 184.367 78.3901C183.966 78.3901 183.245 78.2295 182.603 77.9885C182.042 77.8279 180.359 78.3098 178.916 79.0327ZM184.688 84.5748C186.451 88.109 186.13 91.2415 183.806 92.125C180.92 93.1692 177.473 93.0086 176.351 91.6431C175.068 90.117 176.672 85.2977 178.996 83.611C181.561 81.8439 183.405 82.1652 184.688 84.5748Z" fill="#490B3D"/>
</svg>
