<svg width="150" height="98" viewBox="0 0 313 98" fill="none" xmlns="http://www.w3.org/2000/svg">
<path d="M77.0169 30.1756C77.0199 29.9189 76.9676 29.6638 76.863 29.4257C76.7588 29.1877 76.604 28.971 76.4078 28.7885C76.2117 28.606 75.9784 28.4612 75.7211 28.3621C75.4638 28.2631 75.188 28.2122 74.9096 28.2122L1.21034 28.3167C-0.119186 28.3167 -0.353292 27.8433 0.507609 26.8962C8.30381 18.5275 16.7116 10.8551 25.7315 3.87893C31.3972 -0.507151 37.38 -0.0267935 44.247 0.0566954C64.8546 0.279591 85.3644 0.425599 105.776 0.495108C106.077 0.495108 106.365 0.605392 106.577 0.801105C106.79 0.997207 106.909 1.26281 106.909 1.53969L107 70.8005C107 71.0793 106.942 71.3539 106.829 71.6082C106.716 71.863 106.551 72.0924 106.342 72.2835L79.6232 96.9092C77.7196 98.6637 76.7752 98.3017 76.7904 95.8231L77.0169 30.1756Z" fill="black"/>
<path d="M48.5362 52L16.4013 52.0517C15.0729 52.0536 13.9975 53.0475 14 54.2715L14.0541 82.788C14.0562 84.012 15.1354 85.0023 16.4638 85L48.5987 84.9483C49.9271 84.9464 51.0021 83.9525 51 82.7285L50.9459 54.212C50.9438 52.9884 49.8646 51.9977 48.5362 52Z" fill="black"/>
<path d="M162.69 32.1393C160.605 27.2284 151.004 29.8587 153.524 32.5803C154.086 33.1863 155.03 33.6166 156.355 33.8712C162.121 34.9793 170.916 35.9098 170.674 43.3218C170.379 52.3205 158.284 52.7346 152.073 50.8305C148.103 49.6149 145.642 47.2268 145.008 43.1443C144.969 42.904 145.073 42.7839 145.32 42.7839L151.665 42.7677C151.894 42.7677 152.055 42.8717 152.149 43.0797C153.76 46.6458 158.043 46.8771 161.325 46.0918C162.636 45.7745 163.55 45.0322 163.458 43.666C163.184 39.3899 148.151 41.8802 146.217 34.124C143.149 21.7958 168.756 20.2575 169.637 32.107C169.648 32.2934 169.562 32.3867 169.379 32.3867L163.082 32.3974C162.892 32.401 162.762 32.315 162.69 32.1393Z" fill="black"/>
<path d="M185.777 30.617C178.217 31.6336 177.293 42.531 184.127 45.1182C188.162 46.6458 191.483 44.4889 193.009 40.6969C193.084 40.5068 193.222 40.4118 193.422 40.4118L199.456 40.3957C199.624 40.3957 199.698 40.4781 199.676 40.6431C199.067 45.38 196.865 48.6073 193.068 50.3249C189.001 52.1645 183.714 51.9547 179.63 50.0076C172.941 46.8179 170.926 38.3033 173.86 31.9133C176.955 25.1898 185.589 23.0975 192.009 25.249C194.728 26.1634 198.473 28.9173 198.93 31.994C198.942 32.0802 198.923 32.168 198.877 32.2425C198.831 32.317 198.76 32.3737 198.677 32.4028L193.197 34.2208C193.111 34.2492 193.019 34.2464 192.935 34.2129C192.851 34.1794 192.782 34.1175 192.74 34.0379C191.261 31.3306 188.94 30.1903 185.777 30.617Z" fill="black"/>
<path d="M220.018 45.5324L210.487 45.5163C210.425 45.5163 210.365 45.5354 210.315 45.5711C210.265 45.6068 210.227 45.6572 210.207 45.7153L208.289 51.3469C208.269 51.405 208.231 51.4555 208.181 51.4911C208.131 51.5268 208.071 51.5459 208.01 51.5459H200.81C200.762 51.5466 200.714 51.5353 200.671 51.5132C200.628 51.491 200.591 51.4585 200.563 51.4187C200.536 51.3788 200.518 51.3328 200.513 51.2846C200.507 51.2365 200.513 51.1877 200.531 51.1425L210.615 24.6789C210.637 24.6236 210.675 24.5761 210.724 24.5425C210.772 24.5089 210.83 24.4909 210.89 24.4906L219.819 24.4852C219.879 24.4859 219.937 24.5048 219.986 24.5394C220.035 24.5739 220.072 24.6226 220.093 24.6789L230.124 51.1586C230.142 51.2038 230.148 51.2526 230.142 51.3008C230.137 51.3489 230.119 51.395 230.092 51.4348C230.064 51.4747 230.027 51.5071 229.984 51.5293C229.941 51.5515 229.893 51.5627 229.845 51.5621L222.452 51.5352C222.39 51.5352 222.33 51.516 222.28 51.4804C222.23 51.4447 222.193 51.3943 222.172 51.3361L220.297 45.7314C220.277 45.6733 220.239 45.6229 220.189 45.5872C220.139 45.5515 220.079 45.5324 220.018 45.5324ZM211.878 40.2128C211.865 40.2518 211.862 40.2932 211.868 40.3337C211.875 40.3742 211.891 40.4126 211.915 40.4457C211.939 40.4789 211.971 40.5057 212.007 40.5242C212.044 40.5426 212.084 40.552 212.125 40.5517L218.417 40.5302C218.458 40.5299 218.498 40.5199 218.535 40.5008C218.571 40.4817 218.603 40.4542 218.626 40.4205C218.65 40.3868 218.665 40.3479 218.671 40.3071C218.677 40.2663 218.672 40.2247 218.659 40.1859L215.478 30.7408C215.46 30.6897 215.427 30.6455 215.383 30.6144C215.338 30.5833 215.286 30.5669 215.231 30.5675C215.177 30.5681 215.125 30.5856 215.081 30.6177C215.038 30.6497 215.006 30.6947 214.989 30.7461L211.878 40.2128Z" fill="black"/>
<path d="M241.617 46.0004L255.57 45.9896C255.655 45.9896 255.737 46.0236 255.798 46.0842C255.858 46.1447 255.892 46.2268 255.892 46.3124L255.887 51.2178C255.887 51.3034 255.853 51.3855 255.792 51.446C255.732 51.5065 255.65 51.5405 255.564 51.5405L233.869 51.5459C233.783 51.5459 233.701 51.5119 233.641 51.4514C233.581 51.3909 233.547 51.3088 233.547 51.2232L233.552 24.8187C233.552 24.7331 233.586 24.651 233.646 24.5905C233.707 24.53 233.789 24.496 233.874 24.496L240.993 24.4852C241.036 24.4852 241.078 24.4936 241.117 24.5098C241.156 24.526 241.191 24.5498 241.221 24.5798C241.251 24.6097 241.275 24.6453 241.291 24.6845C241.307 24.7236 241.316 24.7656 241.316 24.808L241.294 45.6777C241.294 45.72 241.303 45.762 241.319 45.8012C241.335 45.8403 241.359 45.8759 241.389 45.9059C241.419 45.9358 241.454 45.9596 241.493 45.9758C241.532 45.992 241.574 46.0004 241.617 46.0004Z" fill="black"/>
<path d="M267.121 30.3696L267.132 35.0169C267.132 35.0968 267.164 35.1734 267.22 35.2299C267.277 35.2864 267.353 35.3181 267.433 35.3181L281.048 35.3342C281.127 35.3342 281.204 35.366 281.26 35.4225C281.317 35.4789 281.348 35.5556 281.348 35.6355L281.343 40.2397C281.343 40.3196 281.311 40.3962 281.255 40.4527C281.199 40.5092 281.122 40.5409 281.042 40.5409L267.454 40.5355C267.415 40.5355 267.376 40.5433 267.339 40.5585C267.303 40.5736 267.27 40.5958 267.242 40.6237C267.214 40.6517 267.192 40.6849 267.176 40.7215C267.161 40.758 267.153 40.7972 267.153 40.8367L267.111 45.6938C267.11 45.7338 267.117 45.7735 267.132 45.8107C267.147 45.8479 267.169 45.8817 267.197 45.9103C267.225 45.9388 267.258 45.9615 267.295 45.9769C267.332 45.9924 267.371 46.0004 267.411 46.0004L281.993 45.9896C282.073 45.9896 282.15 46.0214 282.206 46.0778C282.262 46.1343 282.294 46.2109 282.294 46.2908L282.332 51.2393C282.332 51.3192 282.3 51.3958 282.244 51.4523C282.187 51.5088 282.111 51.5405 282.031 51.5405L259.675 51.5513C259.595 51.5513 259.518 51.5195 259.462 51.4631C259.405 51.4066 259.374 51.33 259.374 51.2501L259.384 24.7918C259.384 24.7119 259.416 24.6353 259.473 24.5788C259.529 24.5223 259.605 24.4906 259.685 24.4906H282.02C282.1 24.4906 282.176 24.5223 282.233 24.5788C282.289 24.6353 282.321 24.7119 282.321 24.7918L282.316 29.7672C282.316 29.8067 282.308 29.8459 282.293 29.8825C282.278 29.919 282.255 29.9522 282.227 29.9802C282.199 30.0082 282.166 30.0303 282.13 30.0455C282.093 30.0606 282.054 30.0684 282.015 30.0684H267.422C267.342 30.0684 267.266 30.1001 267.209 30.1566C267.153 30.2131 267.121 30.2897 267.121 30.3696Z" fill="black"/>
<path d="M293.319 41.9717L293.33 51.1425C293.33 51.2481 293.288 51.3493 293.213 51.424C293.139 51.4986 293.038 51.5405 292.932 51.5405H286.098C285.894 51.5405 285.792 51.4401 285.792 51.2393L285.786 24.894C285.786 24.6825 285.892 24.5731 286.103 24.5659C293.006 24.3938 298.334 24.3902 302.087 24.5552C306.778 24.7596 310.926 27.9868 310.861 32.8815C310.813 36.4584 309.072 39.3361 305.558 40.3688C305.493 40.3884 305.433 40.4231 305.383 40.4702C305.334 40.5173 305.296 40.5754 305.273 40.6395C305.251 40.7037 305.244 40.7722 305.253 40.8392C305.263 40.9063 305.288 40.97 305.327 41.025L312.296 50.9973C312.55 51.3595 312.455 51.5405 312.011 51.5405L304.253 51.5459C304.095 51.5459 303.975 51.4796 303.893 51.3469L297.94 41.9502C297.892 41.8745 297.826 41.8121 297.748 41.7688C297.67 41.7256 297.582 41.7028 297.494 41.7027L293.631 41.6651C293.59 41.6644 293.55 41.6718 293.512 41.6869C293.474 41.702 293.44 41.7244 293.411 41.753C293.382 41.7815 293.359 41.8155 293.343 41.8531C293.327 41.8906 293.319 41.931 293.319 41.9717ZM293.314 30.3051L293.324 36.2325C293.326 36.3229 293.363 36.4091 293.427 36.4725C293.491 36.5359 293.578 36.5714 293.668 36.5714L299.525 36.566C299.987 36.5652 300.444 36.4848 300.87 36.3294C301.297 36.174 301.684 35.9467 302.01 35.6605C302.335 35.3742 302.594 35.0346 302.769 34.6612C302.945 34.2877 303.034 33.8877 303.033 33.484V33.0106C303.03 32.1969 302.658 31.4175 301.998 30.8437C301.338 30.2698 300.445 29.9485 299.514 29.9501L293.658 29.9555C293.612 29.9555 293.567 29.9645 293.525 29.9822C293.483 29.9998 293.444 30.0256 293.412 30.0582C293.38 30.0907 293.355 30.1293 293.338 30.1717C293.321 30.2141 293.313 30.2594 293.314 30.3051Z" fill="black"/>
<path d="M196.077 59.3828H195.733C195.38 59.3828 195.093 59.6694 195.093 60.0229V70.6621C195.093 71.0156 195.38 71.3022 195.733 71.3022H196.077C196.43 71.3022 196.716 71.0156 196.716 70.6621V60.0229C196.716 59.6694 196.43 59.3828 196.077 59.3828Z" fill="black"/>
<path d="M215.526 64.6001C215.462 66.3823 215.472 68.1609 215.558 69.9359C215.583 70.463 215.469 70.8593 215.215 71.1246C215.113 71.2326 214.981 71.3077 214.836 71.3404C214.691 71.3731 214.54 71.3619 214.402 71.3082C214.264 71.2546 214.144 71.1608 214.059 71.0391C213.974 70.9173 213.928 70.7729 213.925 70.6244L213.855 64.9444C213.852 64.7617 213.778 64.5897 213.651 64.4657L213.028 63.8579C212.992 63.8223 212.964 63.7795 212.946 63.7324C212.928 63.6852 212.92 63.6347 212.924 63.5843C212.927 63.5339 212.94 63.4848 212.964 63.4401C212.987 63.3955 213.02 63.3563 213.06 63.3254L213.63 62.9005C213.682 62.8599 213.724 62.8085 213.754 62.7499C213.784 62.6913 213.8 62.627 213.801 62.5616C213.866 60.5678 214.908 59.4813 216.928 59.302C217.394 59.259 217.758 59.3612 218.019 59.6086C218.13 59.7117 218.207 59.8463 218.239 59.9943C218.271 60.1422 218.257 60.2965 218.199 60.4365C218.142 60.5764 218.042 60.6952 217.915 60.777C217.788 60.8588 217.638 60.8997 217.487 60.8942C216.343 60.8511 214.983 61.0717 215.58 62.6476C215.652 62.8377 215.788 62.9399 215.988 62.9542L217.407 63.0511C217.452 63.0544 217.497 63.0669 217.538 63.0878C217.579 63.1086 217.615 63.1374 217.644 63.1725C217.674 63.2076 217.696 63.2482 217.71 63.292C217.723 63.3358 217.728 63.3819 217.724 63.4276L217.681 63.9493C217.659 64.1896 217.528 64.3079 217.288 64.3043L215.854 64.2882C215.643 64.2882 215.533 64.3922 215.526 64.6001Z" fill="black"/>
<path d="M282.488 59.3611L282.305 59.3614C281.913 59.3621 281.597 59.6805 281.597 60.0727L281.616 70.5828C281.616 70.9749 281.934 71.2922 282.326 71.2916L282.509 71.2912C282.9 71.2906 283.217 70.9721 283.217 70.58L283.198 60.0699C283.198 59.6778 282.88 59.3604 282.488 59.3611Z" fill="black"/>
<path d="M166.752 63.7073C167.472 63.2662 167.923 62.8951 168.745 62.7499C173.919 61.8355 172.802 68.0856 172.737 70.9149C172.73 71.1802 172.596 71.2985 172.334 71.2699L171.491 71.1784C171.258 71.1533 171.143 71.0242 171.147 70.7911C171.168 68.1771 171.15 66.5168 171.093 65.8104C170.921 63.632 167.681 63.9547 166.816 65.4393C166.102 66.6656 166.338 69.2958 166.354 70.9041C166.355 70.953 166.346 71.0016 166.327 71.0468C166.309 71.092 166.281 71.1328 166.246 71.1666C166.212 71.2005 166.17 71.2266 166.125 71.2435C166.08 71.2603 166.032 71.2675 165.984 71.2645L165.038 71.2107C164.841 71.1999 164.742 71.0942 164.742 70.8933L164.769 59.8615C164.769 59.7867 164.792 59.7141 164.836 59.654C164.88 59.594 164.941 59.5498 165.011 59.528C165.527 59.363 165.908 59.3809 166.155 59.5818C166.327 59.7252 166.399 60.0174 166.37 60.4585C166.302 61.4769 166.301 62.4917 166.365 63.5029C166.368 63.5466 166.382 63.5887 166.406 63.6254C166.43 63.662 166.463 63.692 166.502 63.7124C166.541 63.7329 166.584 63.7431 166.628 63.7422C166.671 63.7413 166.714 63.7293 166.752 63.7073Z" fill="black"/>
<path d="M252.378 63.8687C254.366 62.1797 258.347 62.013 258.541 65.4662C258.645 67.3021 258.648 69.1434 258.552 70.9902C258.541 71.2125 258.424 71.3111 258.202 71.286L257.332 71.1892C257.244 71.1798 257.162 71.1375 257.103 71.0708C257.045 71.0041 257.013 70.9177 257.015 70.8288C257.058 68.5428 257.703 64.4765 255.172 64.2721C251.572 63.9709 252.072 68.5805 252.212 70.7589C252.218 70.8656 252.186 70.9712 252.121 71.0569C252.056 71.1426 251.962 71.2028 251.857 71.2268C251.348 71.3452 250.99 71.2842 250.782 71.044C250.654 70.8969 250.587 70.5993 250.584 70.1511C250.566 66.7015 250.578 63.2537 250.621 59.8077C250.622 59.7582 250.633 59.7094 250.653 59.6642C250.673 59.619 250.702 59.5783 250.738 59.5447C250.774 59.511 250.817 59.485 250.863 59.4682C250.909 59.4515 250.959 59.4444 251.008 59.4473L251.943 59.4957C252.133 59.5065 252.226 59.6069 252.222 59.7969L252.12 63.7449C252.113 63.978 252.199 64.0193 252.378 63.8687Z" fill="black"/>
<path d="M147.539 62.7499C147.421 63.3631 147.764 63.831 148.57 64.1538C149.616 64.5733 150.669 65.0072 151.73 65.4554C154.534 66.6388 154.051 70.1888 151.273 71.0225C149.779 71.4743 144.895 71.3667 145.137 68.8118C145.148 68.7075 145.187 68.6082 145.251 68.5246C145.314 68.4411 145.399 68.3764 145.496 68.3377C145.594 68.2989 145.7 68.2875 145.803 68.3047C145.906 68.3219 146.003 68.3671 146.083 68.4353C147.34 69.5326 151.52 70.9902 151.579 67.9243C151.583 67.816 151.551 67.7085 151.488 67.6177C150.107 65.5845 146.615 66.5635 145.717 63.7665C145.175 62.0829 146.19 60.6952 147.829 60.2111C148.731 59.9476 153.787 59.7432 153.169 61.7279C153.135 61.841 153.077 61.945 152.997 62.0323C152.918 62.1197 152.82 62.1882 152.71 62.233C152.6 62.2778 152.482 62.2977 152.364 62.2913C152.245 62.2849 152.13 62.2523 152.025 62.1959C150.902 61.5881 147.909 60.8942 147.539 62.7499Z" fill="black"/>
<path d="M225.197 61.5881L222.172 61.4913C222.091 61.4885 222.013 61.4536 221.957 61.3942C221.901 61.3349 221.87 61.2558 221.872 61.1739L221.893 60.3994C221.894 60.3176 221.928 60.2396 221.986 60.1822C222.044 60.1249 222.123 60.0928 222.205 60.0928L230.447 60.0874C230.489 60.0873 230.532 60.096 230.571 60.113C230.61 60.13 230.646 60.155 230.675 60.1862C230.704 60.2175 230.727 60.2545 230.741 60.2949C230.755 60.3353 230.761 60.3781 230.758 60.4209L230.694 61.3084C230.688 61.3883 230.652 61.463 230.593 61.5171C230.534 61.5711 230.457 61.6004 230.377 61.5988L227.389 61.5182C227.348 61.5167 227.306 61.5237 227.267 61.5387C227.228 61.5538 227.192 61.5765 227.162 61.6056C227.132 61.6348 227.108 61.6696 227.092 61.7082C227.075 61.7468 227.067 61.7882 227.067 61.8301L227.078 70.9041C227.078 70.9824 227.049 71.058 226.996 71.1158C226.943 71.1735 226.871 71.2094 226.793 71.2161L225.864 71.2968C225.82 71.3005 225.777 71.2952 225.736 71.2812C225.695 71.2672 225.657 71.2449 225.626 71.2155C225.594 71.1862 225.568 71.1505 225.551 71.1108C225.534 71.0711 225.525 71.0282 225.525 70.9848L225.498 61.9001C225.498 61.8191 225.467 61.7414 225.411 61.6832C225.355 61.625 225.278 61.5909 225.197 61.5881Z" fill="black"/>
<path d="M161.019 64.7024C157.688 62.1905 154.421 68.0103 158.236 69.6562C159.346 70.1332 160.467 69.8911 161.599 68.9301C161.659 68.8793 161.736 68.8514 161.814 68.8514C161.893 68.8514 161.969 68.8793 162.029 68.9301C162.545 69.3604 162.695 70.0381 162.045 70.4523C159.574 72.0068 156.157 71.3452 155.157 68.6128C153.556 64.2237 158.274 61.1793 161.991 63.4599C162.107 63.5316 162.197 63.6381 162.249 63.7645C162.301 63.8909 162.313 64.0308 162.282 64.1645C162.074 65.0036 161.653 65.1829 161.019 64.7024Z" fill="black"/>
<path d="M183.257 66.9776C183.257 68.1431 182.795 69.2608 181.971 70.085C181.148 70.9091 180.032 71.3721 178.867 71.3721C177.703 71.3721 176.587 70.9091 175.764 70.085C174.94 69.2608 174.478 68.1431 174.478 66.9776C174.478 65.8121 174.94 64.6944 175.764 63.8702C176.587 63.0461 177.703 62.5831 178.867 62.5831C180.032 62.5831 181.148 63.0461 181.971 63.8702C182.795 64.6944 183.257 65.8121 183.257 66.9776ZM181.64 66.9937C181.64 66.2505 181.345 65.5377 180.82 65.0122C180.295 64.4866 179.583 64.1914 178.841 64.1914C178.098 64.1914 177.386 64.4866 176.861 65.0122C176.336 65.5377 176.041 66.2505 176.041 66.9937C176.041 67.737 176.336 68.4498 176.861 68.9753C177.386 69.5008 178.098 69.7961 178.841 69.7961C179.583 69.7961 180.295 69.5008 180.82 68.9753C181.345 68.4498 181.64 67.737 181.64 66.9937Z" fill="black"/>
<path d="M193.154 66.9722C193.154 68.1391 192.691 69.2583 191.867 70.0834C191.042 70.9085 189.924 71.3721 188.759 71.3721C187.593 71.3721 186.475 70.9085 185.651 70.0834C184.827 69.2583 184.364 68.1391 184.364 66.9722C184.364 65.8053 184.827 64.6862 185.651 63.8611C186.475 63.0359 187.593 62.5724 188.759 62.5724C189.924 62.5724 191.042 63.0359 191.867 63.8611C192.691 64.6862 193.154 65.8053 193.154 66.9722ZM191.553 66.9991C191.553 66.2545 191.257 65.5403 190.731 65.0138C190.205 64.4872 189.492 64.1914 188.748 64.1914C188.004 64.1914 187.291 64.4872 186.765 65.0138C186.239 65.5403 185.943 66.2545 185.943 66.9991C185.943 67.7438 186.239 68.4579 186.765 68.9845C187.291 69.511 188.004 69.8069 188.748 69.8069C189.492 69.8069 190.205 69.511 190.731 68.9845C191.257 68.4579 191.553 67.7438 191.553 66.9991Z" fill="black"/>
<path d="M211.755 66.9722C211.755 68.1363 211.293 69.2527 210.47 70.0758C209.648 70.8989 208.533 71.3613 207.37 71.3613C206.208 71.3613 205.092 70.8989 204.27 70.0758C203.448 69.2527 202.986 68.1363 202.986 66.9722C202.986 65.8082 203.448 64.6918 204.27 63.8687C205.092 63.0455 206.208 62.5831 207.37 62.5831C208.533 62.5831 209.648 63.0455 210.47 63.8687C211.293 64.6918 211.755 65.8082 211.755 66.9722ZM210.164 66.9991C210.164 66.2545 209.869 65.5403 209.343 65.0138C208.817 64.4872 208.103 64.1914 207.36 64.1914C206.616 64.1914 205.902 64.4872 205.376 65.0138C204.85 65.5403 204.555 66.2545 204.555 66.9991C204.555 67.7438 204.85 68.4579 205.376 68.9845C205.902 69.511 206.616 69.8068 207.36 69.8068C208.103 69.8068 208.817 69.511 209.343 68.9845C209.869 68.4579 210.164 67.7438 210.164 66.9991Z" fill="black"/>
<path d="M233.138 68.0964C233.704 69.373 234.677 69.9718 236.056 69.8929C236.937 69.8391 237.635 69.2636 238.5 69.1184C238.63 69.0954 238.764 69.1176 238.879 69.1814C238.995 69.2452 239.085 69.3468 239.135 69.4695C239.185 69.5922 239.192 69.7286 239.155 69.8564C239.118 69.9842 239.038 70.0957 238.93 70.1726C236.389 71.953 232.322 71.6195 231.569 68.2094C230.146 61.7978 239.559 60.4532 239.709 66.7194C239.724 67.329 239.426 67.632 238.817 67.6285L233.445 67.6231C233.389 67.6225 233.334 67.636 233.285 67.6625C233.236 67.6889 233.195 67.7274 233.164 67.7744C233.134 67.8215 233.116 67.8755 233.111 67.9318C233.106 67.988 233.116 68.0446 233.138 68.0964ZM233.246 66.3537L238.114 66.3429C238.135 66.3429 238.155 66.3344 238.171 66.3193C238.186 66.3042 238.194 66.2836 238.194 66.2622V66.2192C238.193 65.6451 237.935 65.095 237.476 64.6896C237.018 64.2842 236.397 64.0567 235.749 64.0569H235.61C235.288 64.0571 234.97 64.1134 234.673 64.2227C234.376 64.332 234.106 64.4922 233.879 64.6941C233.652 64.8959 233.472 65.1355 233.35 65.399C233.227 65.6626 233.165 65.9449 233.165 66.23V66.273C233.165 66.2944 233.174 66.3149 233.189 66.33C233.204 66.3452 233.224 66.3537 233.246 66.3537Z" fill="black"/>
<path d="M243.701 69.4088C244.794 70.2013 245.995 70.0758 247.306 69.0323C247.444 68.9232 247.616 68.8681 247.791 68.8773C247.966 68.8864 248.132 68.9592 248.257 69.082C248.383 69.2048 248.459 69.3691 248.472 69.5441C248.485 69.7192 248.433 69.8929 248.327 70.0327C246.979 71.7916 243.304 71.485 241.993 70.0704C240.171 68.1017 240.386 64.5033 242.917 63.1586C244.604 62.2658 246.352 62.4397 248.161 63.6804C248.222 63.7217 248.266 63.7827 248.288 63.8531C248.309 63.9236 248.306 63.9993 248.279 64.0676L247.978 64.8099C247.955 64.8671 247.919 64.9182 247.873 64.9592C247.827 65.0001 247.773 65.0299 247.713 65.046C247.654 65.0622 247.591 65.0643 247.531 65.0523C247.471 65.0403 247.414 65.0144 247.365 64.9767C243.932 62.3142 240.289 66.9345 243.701 69.4088Z" fill="black"/>
<path d="M263.285 63.5137C264.988 62.4594 267.734 62.1905 268.733 64.1484C269.491 65.6329 269.136 68.914 269.093 70.8396C269.092 70.9447 269.049 71.0451 268.975 71.1195C268.901 71.1938 268.8 71.2362 268.695 71.2376L267.906 71.243C267.857 71.243 267.808 71.2332 267.763 71.2142C267.717 71.1952 267.676 71.1674 267.642 71.1324C267.607 71.0973 267.58 71.0558 267.562 71.0101C267.543 70.9645 267.534 70.9157 267.535 70.8665C267.553 68.3384 267.531 66.6854 267.47 65.9072C267.304 63.8364 264.467 63.8902 263.409 65.1165C262.452 66.2246 262.812 69.3819 262.801 70.8718C262.801 71.1336 262.671 71.2645 262.409 71.2645L261.55 71.2537C261.335 71.2502 261.227 71.1408 261.227 70.9256L261.222 63.2393C261.22 63.116 261.264 62.9963 261.345 62.9038C261.427 62.8112 261.54 62.7525 261.662 62.7391C262.232 62.671 262.635 62.8897 262.871 63.3953C262.964 63.589 263.102 63.6284 263.285 63.5137Z" fill="black"/>
<path d="M279.602 66.9669C279.602 68.1309 279.14 69.2473 278.318 70.0704C277.496 70.8935 276.381 71.3559 275.218 71.3559C274.055 71.3559 272.94 70.8935 272.118 70.0704C271.296 69.2473 270.834 68.1309 270.834 66.9669C270.834 65.8028 271.296 64.6864 272.118 63.8633C272.94 63.0402 274.055 62.5778 275.218 62.5778C276.381 62.5778 277.496 63.0402 278.318 63.8633C279.14 64.6864 279.602 65.8028 279.602 66.9669ZM278.039 66.9937C278.039 66.2462 277.742 65.5293 277.214 65.0008C276.686 64.4722 275.97 64.1753 275.223 64.1753C274.477 64.1753 273.761 64.4722 273.233 65.0008C272.705 65.5293 272.408 66.2462 272.408 66.9937C272.408 67.3639 272.481 67.7304 272.622 68.0723C272.764 68.4143 272.971 68.725 273.233 68.9867C273.494 69.2484 273.804 69.456 274.146 69.5977C274.488 69.7393 274.854 69.8122 275.223 69.8122C275.593 69.8122 275.959 69.7393 276.301 69.5977C276.642 69.456 276.953 69.2484 277.214 68.9867C277.476 68.725 277.683 68.4143 277.824 68.0723C277.966 67.7304 278.039 67.3639 278.039 66.9937Z" fill="black"/>
<path d="M294.044 66.9669C294.044 68.1338 293.581 69.2529 292.757 70.078C291.933 70.9032 290.815 71.3667 289.649 71.3667C288.484 71.3667 287.366 70.9032 286.542 70.078C285.717 69.2529 285.254 68.1338 285.254 66.9669C285.254 65.8 285.717 64.6808 286.542 63.8557C287.366 63.0306 288.484 62.567 289.649 62.567C290.815 62.567 291.933 63.0306 292.757 63.8557C293.581 64.6808 294.044 65.8 294.044 66.9669ZM292.454 67.0045C292.454 66.2556 292.157 65.5373 291.628 65.0077C291.099 64.4782 290.381 64.1807 289.633 64.1807C288.885 64.1807 288.168 64.4782 287.639 65.0077C287.11 65.5373 286.813 66.2556 286.813 67.0045C286.813 67.7535 287.11 68.4717 287.639 69.0013C288.168 69.5309 288.885 69.8284 289.633 69.8284C290.381 69.8284 291.099 69.5309 291.628 69.0013C292.157 68.4717 292.454 67.7535 292.454 67.0045Z" fill="black"/>
<path d="M301.647 69.9898C301.029 70.1888 300.47 70.6353 299.885 70.7536C296.387 71.4743 294.001 67.763 295.495 64.8531C296.709 62.4864 299.331 62.0937 301.497 63.4761C301.676 63.5908 301.812 63.5532 301.905 63.3631C302.166 62.8288 302.621 62.6478 303.27 62.8199C303.449 62.8665 303.538 62.983 303.538 63.1695C303.552 65.0449 303.547 66.9131 303.522 68.7742C303.495 71.0978 303.705 73.1256 301.013 74.0185C299.247 74.603 297.526 74.3484 295.85 73.2547C295.628 73.1113 295.599 72.9356 295.764 72.7276L296.194 72.1897C296.256 72.1105 296.347 72.0582 296.446 72.0432C296.546 72.0282 296.648 72.0517 296.731 72.109C298.729 73.4753 301.959 73.2278 301.937 70.205C301.937 69.997 301.84 69.9253 301.647 69.9898ZM301.985 66.784C301.985 66.075 301.704 65.3951 301.203 64.8938C300.703 64.3924 300.023 64.1108 299.315 64.1108C298.607 64.1108 297.928 64.3924 297.427 64.8938C296.926 65.3951 296.645 66.075 296.645 66.784C296.645 67.493 296.926 68.173 297.427 68.6743C297.928 69.1757 298.607 69.4573 299.315 69.4573C300.023 69.4573 300.703 69.1757 301.203 68.6743C301.704 68.173 301.985 67.493 301.985 66.784Z" fill="black"/>
<path d="M308.825 68.8763C308.835 68.9061 308.854 68.9319 308.88 68.9502C308.905 68.9685 308.936 68.9783 308.967 68.9783C308.999 68.9783 309.029 68.9685 309.055 68.9502C309.08 68.9319 309.1 68.9061 309.11 68.8763L311.227 63.3254C311.276 63.1923 311.362 63.0779 311.474 62.9973C311.882 62.6961 312.312 62.6423 312.763 62.8359C312.978 62.9292 313.039 63.0834 312.946 63.2985C311.707 66.2246 310.521 69.1596 309.389 72.1036C308.58 74.2085 307.102 74.8055 304.957 73.8947C304.906 73.8731 304.859 73.8415 304.821 73.8018C304.782 73.7622 304.751 73.7152 304.731 73.6637C304.711 73.6122 304.7 73.5571 304.701 73.5017C304.702 73.4462 304.714 73.3915 304.736 73.3407L305.016 72.7168C305.051 72.6377 305.115 72.575 305.195 72.5411C305.274 72.5072 305.364 72.5046 305.445 72.5339C306.869 73.0449 308.642 72.152 307.906 70.4792C306.846 68.0659 305.84 65.6329 304.887 63.1802C304.815 62.9866 304.88 62.8628 305.08 62.8091C305.891 62.5939 306.423 62.8951 306.735 63.6804C307.433 65.4303 308.13 67.1623 308.825 68.8763Z" fill="black"/>
</svg>
