<svg width="100" height="100" viewBox="0 0 200 200" fill="none" xmlns="http://www.w3.org/2000/svg">
<g clip-path="url(#clip0_1_61)">
<mask id="mask0_1_61" style="mask-type:luminance" maskUnits="userSpaceOnUse" x="0" y="0" width="200" height="200">
<path d="M0 0H200V200H0V0Z" fill="white"/>
</mask>
<g mask="url(#mask0_1_61)">
<path d="M59.6667 111.186C59.6667 111.216 59.6551 111.245 59.6344 111.266C59.6138 111.287 59.5858 111.298 59.5567 111.298H20.1633C20.1436 111.298 20.1242 111.293 20.1072 111.283C20.0902 111.273 20.0762 111.258 20.0667 111.241C20.0567 111.224 20.0514 111.204 20.0514 111.185C20.0514 111.165 20.0567 111.146 20.0667 111.129L38.6967 80.5322C38.7056 80.5173 38.7104 80.5002 38.7106 80.4827C38.7108 80.4652 38.7065 80.448 38.698 80.4328C38.6895 80.4176 38.6772 80.405 38.6623 80.3962C38.6474 80.3875 38.6305 80.383 38.6133 80.3831H21.7467C21.7175 80.3831 21.6895 80.3713 21.6689 80.3503C21.6483 80.3293 21.6367 80.3009 21.6367 80.2712V70.0034C21.6367 69.9737 21.6483 69.9453 21.6689 69.9243C21.6895 69.9033 21.7175 69.8915 21.7467 69.8915H58.0367C58.0563 69.8911 58.0758 69.896 58.0929 69.9058C58.1101 69.9156 58.1243 69.9299 58.1342 69.9473C58.1441 69.9646 58.1492 69.9843 58.1491 70.0043C58.1489 70.0243 58.1435 70.0439 58.1333 70.061L39.5033 100.651C39.4944 100.666 39.4896 100.683 39.4894 100.7C39.4892 100.718 39.4935 100.735 39.502 100.75C39.5105 100.765 39.5228 100.778 39.5377 100.787C39.5526 100.796 39.5695 100.8 39.5867 100.8H59.56C59.5744 100.8 59.5887 100.803 59.6021 100.809C59.6154 100.814 59.6276 100.822 59.6378 100.833C59.648 100.843 59.6561 100.855 59.6616 100.869C59.6671 100.883 59.67 100.897 59.67 100.912L59.6667 111.186Z" fill="#00AEEF"/>
<path d="M127.847 57.9661C127.847 57.9532 127.844 57.9404 127.839 57.9285C127.834 57.9166 127.827 57.9057 127.818 57.8966C127.809 57.8875 127.799 57.8802 127.787 57.8753C127.775 57.8703 127.763 57.8678 127.75 57.8678H116.483C116.458 57.8678 116.433 57.8782 116.415 57.8966C116.397 57.915 116.387 57.94 116.387 57.9661V113.559C116.387 113.585 116.397 113.61 116.415 113.629C116.433 113.647 116.458 113.658 116.483 113.658H127.753C127.779 113.658 127.804 113.647 127.822 113.629C127.84 113.61 127.85 113.585 127.85 113.559L127.847 57.9661Z" fill="#00AEEF"/>
<path d="M87.0701 67.6746C82.6107 67.6746 78.2516 69.0193 74.5438 71.5388C70.836 74.0582 67.9462 77.6392 66.2396 81.8289C64.5331 86.0186 64.0866 90.6288 64.9566 95.0766C65.8266 99.5243 67.9739 103.61 71.1271 106.817C74.2804 110.023 78.2978 112.207 82.6714 113.092C87.045 113.976 91.5784 113.522 95.6983 111.787C99.8182 110.051 103.339 107.113 105.817 103.342C108.294 99.5713 109.617 95.1383 109.617 90.6034C109.617 84.5223 107.241 78.6903 103.013 74.3903C98.7846 70.0903 93.0498 67.6746 87.0701 67.6746ZM86.6667 103.125C84.233 103.125 81.8541 102.39 79.8308 101.015C77.8074 99.6394 76.2306 97.6847 75.2995 95.398C74.3685 93.1113 74.1251 90.5951 74.6 88.1677C75.075 85.7403 76.247 83.5106 77.9679 81.7605C79.6888 80.0105 81.8814 78.8186 84.2683 78.3356C86.6553 77.8525 89.1295 78.1001 91.3781 79.0469C93.6267 79.9938 95.5488 81.5973 96.9013 83.655C98.2538 85.7126 98.9761 88.1318 98.9767 90.6068C98.9772 92.2509 98.659 93.8789 98.0406 95.398C97.4221 96.917 96.5154 98.2972 95.3722 99.4598C94.229 100.622 92.8718 101.544 91.3781 102.173C89.8844 102.802 88.2834 103.126 86.6667 103.125Z" fill="#00AEEF"/>
<path d="M157.17 67.6746C152.711 67.6746 148.352 69.0193 144.644 71.5388C140.936 74.0582 138.046 77.6392 136.34 81.8289C134.633 86.0186 134.187 90.6288 135.057 95.0766C135.927 99.5243 138.074 103.61 141.227 106.817C144.38 110.023 148.398 112.207 152.771 113.092C157.145 113.976 161.678 113.522 165.798 111.787C169.918 110.051 173.439 107.113 175.917 103.342C178.394 99.5713 179.717 95.1383 179.717 90.6034C179.717 84.5223 177.341 78.6903 173.113 74.3903C168.885 70.0903 163.15 67.6746 157.17 67.6746ZM156.773 103.125C154.34 103.125 151.961 102.39 149.937 101.015C147.914 99.6394 146.337 97.6847 145.406 95.398C144.475 93.1113 144.232 90.5951 144.707 88.1677C145.182 85.7403 146.354 83.5106 148.075 81.7605C149.795 80.0105 151.988 78.8186 154.375 78.3356C156.762 77.8525 159.236 78.1001 161.485 79.0469C163.733 79.9938 165.655 81.5973 167.008 83.655C168.36 85.7126 169.083 88.1318 169.083 90.6068C169.084 92.2509 168.766 93.8789 168.147 95.398C167.529 96.917 166.622 98.2972 165.479 99.4598C164.336 100.622 162.978 101.544 161.485 102.173C159.991 102.802 158.39 103.126 156.773 103.125Z" fill="#00AEEF"/>
<path d="M157.44 130.871C157.451 130.862 157.459 130.851 157.465 130.838C157.471 130.825 157.474 130.811 157.474 130.797C157.474 130.782 157.471 130.768 157.465 130.756C157.459 130.743 157.451 130.731 157.44 130.722L151.24 124.407C151.223 124.393 151.202 124.386 151.18 124.386C151.158 124.386 151.137 124.393 151.12 124.407C142.457 130.181 132.318 133.242 121.96 133.21C111.602 133.178 101.482 130.055 92.8534 124.227C92.8342 124.211 92.81 124.202 92.785 124.202C92.7601 124.202 92.7359 124.211 92.7167 124.227L86.5134 130.536C86.5028 130.545 86.4943 130.556 86.4885 130.569C86.4827 130.582 86.4797 130.596 86.4797 130.61C86.4797 130.624 86.4827 130.638 86.4885 130.651C86.4943 130.664 86.5028 130.676 86.5134 130.685C96.8865 138.112 109.255 142.114 121.941 142.15C134.627 142.185 147.017 138.251 157.43 130.881L157.44 130.871Z" fill="#00AEEF"/>
</g>
</g>
<defs>
<clipPath id="clip0_1_61">
<rect width="200" height="200" fill="white"/>
</clipPath>
</defs>
</svg>
